REM DIRINDEX 1\2,1\3,1\4,1\6,1\5\7,1\5\8
REM DIRNAME folder01,folder02,folder03,folder04,folder05,folder06,folder07,folder08
TITLE ""
FILE "DB4500_5th_4B_28.mp3" MP3
  TRACK 01 AUDIO
    TITLE "0:"
    INDEX 01 00:00:00
  TRACK 02 AUDIO
    TITLE "2:cjc114_2608"
    INDEX 01 00:00:01
  TRACK 03 AUDIO
    TITLE "0:"
    INDEX 01 00:01:13
  TRACK 04 AUDIO
    TITLE "3:cjc114_2609"
    INDEX 01 00:01:42
  TRACK 05 AUDIO
    TITLE "0:"
    INDEX 01 00:02:42
  TRACK 06 AUDIO
    TITLE "4:cjc114_2610"
    INDEX 01 00:02:67
  TRACK 07 AUDIO
    TITLE "0:"
    INDEX 01 00:06:43
  TRACK 08 AUDIO
    TITLE "2:cjc114_2611"
    INDEX 01 00:07:21
  TRACK 09 AUDIO
    TITLE "0:"
    INDEX 01 00:08:23
  TRACK 10 AUDIO
    TITLE "3:cjc114_2612"
    INDEX 01 00:08:52
  TRACK 11 AUDIO
    TITLE "0:"
    INDEX 01 00:09:61
  TRACK 12 AUDIO
    TITLE "4:cjc114_2613"
    INDEX 01 00:10:14
  TRACK 13 AUDIO
    TITLE "0:"
    INDEX 01 00:13:35
  TRACK 14 AUDIO
    TITLE "2:cjc114_2614"
    INDEX 01 00:14:13
  TRACK 15 AUDIO
    TITLE "0:"
    INDEX 01 00:15:19
  TRACK 16 AUDIO
    TITLE "3:cjc114_2615"
    INDEX 01 00:15:48
  TRACK 17 AUDIO
    TITLE "0:"
    INDEX 01 00:16:55
  TRACK 18 AUDIO
    TITLE "4:cjc114_2616"
    INDEX 01 00:17:06
  TRACK 19 AUDIO
    TITLE "0:"
    INDEX 01 00:20:18
  TRACK 20 AUDIO
    TITLE "2:cjc114_2617"
    INDEX 01 00:20:71
  TRACK 21 AUDIO
    TITLE "0:"
    INDEX 01 00:21:74
  TRACK 22 AUDIO
    TITLE "3:cjc114_2618"
    INDEX 01 00:22:29
  TRACK 23 AUDIO
    TITLE "0:"
    INDEX 01 00:23:44
  TRACK 24 AUDIO
    TITLE "4:cjc114_2619"
    INDEX 01 00:23:71
  TRACK 25 AUDIO
    TITLE "0:"
    INDEX 01 00:26:71
  TRACK 26 AUDIO
    TITLE "2:cjc114_2620"
    INDEX 01 00:27:47
  TRACK 27 AUDIO
    TITLE "0:"
    INDEX 01 00:28:41
  TRACK 28 AUDIO
    TITLE "3:cjc114_2621"
    INDEX 01 00:28:72
  TRACK 29 AUDIO
    TITLE "0:"
    INDEX 01 00:30:10
  TRACK 30 AUDIO
    TITLE "4:cjc114_2622"
    INDEX 01 00:30:40
  TRACK 31 AUDIO
    TITLE "0:"
    INDEX 01 00:32:50
  TRACK 32 AUDIO
    TITLE "2:cjc114_2623"
    INDEX 01 00:33:30
  TRACK 33 AUDIO
    TITLE "0:"
    INDEX 01 00:34:42
  TRACK 34 AUDIO
    TITLE "3:cjc114_2624"
    INDEX 01 00:35:00
  TRACK 35 AUDIO
    TITLE "0:"
    INDEX 01 00:37:46
  TRACK 36 AUDIO
    TITLE "4:cjc114_2625"
    INDEX 01 00:37:73
  TRACK 37 AUDIO
    TITLE "0:"
    INDEX 01 00:40:40
  TRACK 38 AUDIO
    TITLE "2:cjc114_2626"
    INDEX 01 00:41:18
  TRACK 39 AUDIO
    TITLE "0:"
    INDEX 01 00:42:19
  TRACK 40 AUDIO
    TITLE "3:cjc114_2627"
    INDEX 01 00:42:49
  TRACK 41 AUDIO
    TITLE "0:"
    INDEX 01 00:43:54
  TRACK 42 AUDIO
    TITLE "4:cjc114_2628"
    INDEX 01 00:44:07
  TRACK 43 AUDIO
    TITLE "0:"
    INDEX 01 00:46:62
  TRACK 44 AUDIO
    TITLE "2:cjc114_2629"
    INDEX 01 00:47:42
  TRACK 45 AUDIO
    TITLE "0:"
    INDEX 01 00:48:53
  TRACK 46 AUDIO
    TITLE "3:cjc114_2630"
    INDEX 01 00:49:08
  TRACK 47 AUDIO
    TITLE "0:"
    INDEX 01 00:50:33
  TRACK 48 AUDIO
    TITLE "4:cjc114_2631"
    INDEX 01 00:50:56
  TRACK 49 AUDIO
    TITLE "0:"
    INDEX 01 00:53:35
  TRACK 50 AUDIO
    TITLE "2:cjc114_2632"
    INDEX 01 00:54:13
  TRACK 51 AUDIO
    TITLE "0:"
    INDEX 01 00:55:08
  TRACK 52 AUDIO
    TITLE "3:cjc114_2633"
    INDEX 01 00:55:36
  TRACK 53 AUDIO
    TITLE "0:"
    INDEX 01 00:56:53
  TRACK 54 AUDIO
    TITLE "4:cjc114_2634"
    INDEX 01 00:57:05
  TRACK 55 AUDIO
    TITLE "0:"
    INDEX 01 00:59:45
  TRACK 56 AUDIO
    TITLE "2:cjc114_2635"
    INDEX 01 01:00:23
  TRACK 57 AUDIO
    TITLE "0:"
    INDEX 01 01:01:33
  TRACK 58 AUDIO
    TITLE "3:cjc114_2636"
    INDEX 01 01:01:60
  TRACK 59 AUDIO
    TITLE "0:"
    INDEX 01 01:03:08
  TRACK 60 AUDIO
    TITLE "4:cjc114_2637"
    INDEX 01 01:03:35
  TRACK 61 AUDIO
    TITLE "0:"
    INDEX 01 01:05:36
  TRACK 62 AUDIO
    TITLE "2:cjc114_2638"
    INDEX 01 01:06:12
  TRACK 63 AUDIO
    TITLE "0:"
    INDEX 01 01:07:12
  TRACK 64 AUDIO
    TITLE "3:cjc114_2639"
    INDEX 01 01:07:41
  TRACK 65 AUDIO
    TITLE "0:"
    INDEX 01 01:09:46
  TRACK 66 AUDIO
    TITLE "4:cjc114_2640"
    INDEX 01 01:10:00
  TRACK 67 AUDIO
    TITLE "0:"
    INDEX 01 01:12:24
  TRACK 68 AUDIO
    TITLE "2:cjc114_2641"
    INDEX 01 01:13:02
  TRACK 69 AUDIO
    TITLE "0:"
    INDEX 01 01:14:14
  TRACK 70 AUDIO
    TITLE "3:cjc114_2642"
    INDEX 01 01:14:41
  TRACK 71 AUDIO
    TITLE "0:"
    INDEX 01 01:15:58
  TRACK 72 AUDIO
    TITLE "4:cjc114_2643"
    INDEX 01 01:16:11
  TRACK 73 AUDIO
    TITLE "0:"
    INDEX 01 01:18:33
